<svg id="Layer_1" data-name="Layer 1" xmlns="http://www.w3.org/2000/svg" viewBox="0 0 200 200"><defs><style>.cls-1{fill:#231f20;}</style></defs><title>Wondicon - UI (Free)</title><path class="cls-1" d="M154.29,175.14a5,5,0,1,1,0-10,11.55,11.55,0,0,0,11.54-11.54V45.3a11.55,11.55,0,0,0-11.54-11.54,5,5,0,0,1,0-10A21.56,21.56,0,0,1,175.83,45.3V153.6A21.57,21.57,0,0,1,154.29,175.14Z"/><path class="cls-1" d="M46,175.14A21.57,21.57,0,0,1,24.46,153.6V45.3A21.56,21.56,0,0,1,46,23.76a5,5,0,1,1,0,10A11.55,11.55,0,0,0,34.46,45.3V153.6A11.55,11.55,0,0,0,46,165.14a5,5,0,0,1,0,10Z"/><path class="cls-1" d="M99.88,130.74a63.51,63.51,0,0,1-45-18.57l-8.53-8.51a5,5,0,0,1,0-7.07l8.43-8.45a63.71,63.71,0,0,1,90.22,0l8.43,8.45a5,5,0,0,1,1.46,3.54,5,5,0,0,1-1.47,3.53l-8.53,8.51A63.53,63.53,0,0,1,99.88,130.74ZM57,100.11l5,5a53.8,53.8,0,0,0,75.87,0l5-5-4.9-4.91a53.72,53.72,0,0,0-76.06,0Z"/><path class="cls-1" d="M99.88,118.17a18,18,0,1,1,18-18A18.07,18.07,0,0,1,99.88,118.17Zm0-26.09a8,8,0,1,0,8,8A8.06,8.06,0,0,0,99.88,92.08Z"/></svg>